<?xml version="1.0" standalone="no"?>
 <!DOCTYPE svg PUBLIC "-//W3C//DTD SVG 1.1//EN" 
 "http://www.w3.org/Graphics/SVG/1.1/DTD/svg11.dtd"> 
<svg xmlns="http://www.w3.org/2000/svg" version="1.1" 
    width="29.7002cm" height="21.0007cm" viewBox="0 0 116930 82680 ">
<title>SVG Picture created as sensor_nivel_main-B.SilkS.svg date 2017/02/07 00:22:56 </title>
  <desc>Picture generated by PCBNEW </desc>
<g style="fill:#000000; fill-opacity:1;stroke:#000000; stroke-opacity:1;
stroke-linecap:round; stroke-linejoin:round; "
 transform="translate(0 0) scale(1 1)">
</g>
<g style="fill:#000000; fill-opacity:0.0; 
stroke:#000000; stroke-width:-0.000393701; stroke-opacity:1; 
stroke-linecap:round; stroke-linejoin:round;">
</g>
<g style="fill:#000000; fill-opacity:0.0; 
stroke:#000000; stroke-width:59.0551; stroke-opacity:1; 
stroke-linecap:round; stroke-linejoin:round;">
<rect x="69685.9" y="65357.2" width="42519.7" height="12598.4" rx="0" />
<rect x="3937.01" y="3937.01" width="109056" height="74806" rx="0" />
<rect x="4724.41" y="4724.41" width="107481" height="73231.2" rx="0" />
<path d="M23622 4724
L23622 3937
" />
<path d="M43307 4724
L43307 3937
" />
<path d="M62992 4724
L62992 3937
" />
<path d="M82677 4724
L82677 3937
" />
<path d="M102362 4724
L102362 3937
" />
<path d="M14169 4562
L13877 4562
" />
<path d="M14023 4562
L14023 4050
L13974 4123
L13925 4172
L13877 4196
" />
<path d="M33562 4099
L33586 4074
L33635 4050
L33757 4050
L33805 4074
L33830 4099
L33854 4147
L33854 4196
L33830 4269
L33537 4562
L33854 4562
" />
<path d="M53222 4050
L53539 4050
L53368 4245
L53442 4245
L53490 4269
L53515 4294
L53539 4342
L53539 4464
L53515 4513
L53490 4537
L53442 4562
L53295 4562
L53247 4537
L53222 4513
" />
<path d="M73175 4221
L73175 4562
" />
<path d="M73053 4026
L72932 4391
L73248 4391
" />
<path d="M92885 4050
L92641 4050
L92617 4294
L92641 4269
L92690 4245
L92812 4245
L92860 4269
L92885 4294
L92909 4342
L92909 4464
L92885 4513
L92860 4537
L92812 4562
L92690 4562
L92641 4537
L92617 4513
" />
<path d="M112545 4050
L112448 4050
L112399 4074
L112375 4099
L112326 4172
L112302 4269
L112302 4464
L112326 4513
L112350 4537
L112399 4562
L112497 4562
L112545 4537
L112570 4513
L112594 4464
L112594 4342
L112570 4294
L112545 4269
L112497 4245
L112399 4245
L112350 4269
L112326 4294
L112302 4342
" />
<path d="M23622 77955
L23622 78742
" />
<path d="M43307 77955
L43307 78742
" />
<path d="M62992 77955
L62992 78742
" />
<path d="M82677 77955
L82677 78742
" />
<path d="M102362 77955
L102362 78742
" />
<path d="M14169 78580
L13877 78580
" />
<path d="M14023 78580
L14023 78069
L13974 78142
L13925 78190
L13877 78215
" />
<path d="M33562 78117
L33586 78093
L33635 78069
L33757 78069
L33805 78093
L33830 78117
L33854 78166
L33854 78215
L33830 78288
L33537 78580
L33854 78580
" />
<path d="M53222 78069
L53539 78069
L53368 78263
L53442 78263
L53490 78288
L53515 78312
L53539 78361
L53539 78483
L53515 78532
L53490 78556
L53442 78580
L53295 78580
L53247 78556
L53222 78532
" />
<path d="M73175 78239
L73175 78580
" />
<path d="M73053 78044
L72932 78410
L73248 78410
" />
<path d="M92885 78069
L92641 78069
L92617 78312
L92641 78288
L92690 78263
L92812 78263
L92860 78288
L92885 78312
L92909 78361
L92909 78483
L92885 78532
L92860 78556
L92812 78580
L92690 78580
L92641 78556
L92617 78532
" />
<path d="M112545 78069
L112448 78069
L112399 78093
L112375 78117
L112326 78190
L112302 78288
L112302 78483
L112326 78532
L112350 78556
L112399 78580
L112497 78580
L112545 78556
L112570 78532
L112594 78483
L112594 78361
L112570 78312
L112545 78288
L112497 78263
L112399 78263
L112350 78288
L112326 78312
L112302 78361
" />
<path d="M3937 23622
L4724 23622
" />
<path d="M3937 43307
L4724 43307
" />
<path d="M3937 62992
L4724 62992
" />
<path d="M4208 13864
L4452 13864
" />
<path d="M4160 14011
L4330 13499
L4501 14011
" />
<path d="M4367 33428
L4440 33452
L4464 33476
L4489 33525
L4489 33598
L4464 33647
L4440 33671
L4391 33696
L4196 33696
L4196 33184
L4367 33184
L4416 33208
L4440 33233
L4464 33281
L4464 33330
L4440 33379
L4416 33403
L4367 33428
L4196 33428
" />
<path d="M4489 53332
L4464 53356
L4391 53381
L4342 53381
L4269 53356
L4221 53308
L4196 53259
L4172 53161
L4172 53088
L4196 52991
L4221 52942
L4269 52893
L4342 52869
L4391 52869
L4464 52893
L4489 52918
" />
<path d="M4196 73066
L4196 72554
L4318 72554
L4391 72578
L4440 72627
L4464 72676
L4489 72773
L4489 72846
L4464 72944
L4440 72993
L4391 73041
L4318 73066
L4196 73066
" />
<path d="M112992 23622
L112205 23622
" />
<path d="M112992 43307
L112205 43307
" />
<path d="M112992 62992
L112205 62992
" />
<path d="M112477 13864
L112721 13864
" />
<path d="M112428 14011
L112599 13499
L112769 14011
" />
<path d="M112635 33428
L112708 33452
L112733 33476
L112757 33525
L112757 33598
L112733 33647
L112708 33671
L112660 33696
L112465 33696
L112465 33184
L112635 33184
L112684 33208
L112708 33233
L112733 33281
L112733 33330
L112708 33379
L112684 33403
L112635 33428
L112465 33428
" />
<path d="M112757 53332
L112733 53356
L112660 53381
L112611 53381
L112538 53356
L112489 53308
L112465 53259
L112440 53161
L112440 53088
L112465 52991
L112489 52942
L112538 52893
L112611 52869
L112660 52869
L112733 52893
L112757 52918
" />
<path d="M112465 73066
L112465 72554
L112587 72554
L112660 72578
L112708 72627
L112733 72676
L112757 72773
L112757 72846
L112733 72944
L112708 72993
L112660 73041
L112587 73066
L112465 73066
" />
<path d="M78881 76293
L78881 75703
L79022 75703
L79106 75731
L79162 75787
L79190 75843
L79219 75956
L79219 76040
L79190 76153
L79162 76209
L79106 76265
L79022 76293
L78881 76293
" />
<path d="M79725 76293
L79725 75984
L79697 75928
L79640 75899
L79528 75899
L79472 75928
" />
<path d="M79725 76265
L79669 76293
L79528 76293
L79472 76265
L79444 76209
L79444 76153
L79472 76096
L79528 76068
L79669 76068
L79725 76040
" />
<path d="M79922 75899
L80147 75899
" />
<path d="M80006 75703
L80006 76209
L80034 76265
L80090 76293
L80147 76293
" />
<path d="M80568 76265
L80512 76293
L80400 76293
L80343 76265
L80315 76209
L80315 75984
L80343 75928
L80400 75899
L80512 75899
L80568 75928
L80597 75984
L80597 76040
L80315 76096
" />
<path d="M80850 76237
L80878 76265
L80850 76293
L80822 76265
L80850 76237
L80850 76293
" />
<path d="M80850 75928
L80878 75956
L80850 75984
L80822 75956
L80850 75928
L80850 75984
" />
<path d="M69685 76577
L112205 76577
" />
<path d="M70220 77395
L70220 76805
" />
<path d="M70557 77395
L70304 77058
" />
<path d="M70557 76805
L70220 77142
" />
<path d="M70810 77395
L70810 77002
" />
<path d="M70810 76805
L70782 76833
L70810 76861
L70838 76833
L70810 76805
L70810 76861
" />
<path d="M71429 77339
L71401 77367
L71316 77395
L71260 77395
L71176 77367
L71120 77311
L71091 77255
L71063 77142
L71063 77058
L71091 76946
L71120 76889
L71176 76833
L71260 76805
L71316 76805
L71401 76833
L71429 76861
" />
<path d="M71935 77395
L71935 77086
L71907 77030
L71851 77002
L71738 77002
L71682 77030
" />
<path d="M71935 77367
L71879 77395
L71738 77395
L71682 77367
L71654 77311
L71654 77255
L71682 77199
L71738 77171
L71879 77171
L71935 77142
" />
<path d="M72469 77395
L72469 76805
" />
<path d="M72469 77367
L72413 77395
L72301 77395
L72244 77367
L72216 77339
L72188 77283
L72188 77114
L72216 77058
L72244 77030
L72301 77002
L72413 77002
L72469 77030
" />
<path d="M73201 77086
L73397 77086
" />
<path d="M73482 77395
L73201 77395
L73201 76805
L73482 76805
" />
<path d="M73735 77339
L73763 77367
L73735 77395
L73707 77367
L73735 77339
L73735 77395
" />
<path d="M74016 77395
L74016 76805
L74157 76805
L74241 76833
L74297 76889
L74325 76946
L74354 77058
L74354 77142
L74325 77255
L74297 77311
L74241 77367
L74157 77395
L74016 77395
" />
<path d="M74607 77339
L74635 77367
L74607 77395
L74579 77367
L74607 77339
L74607 77395
" />
<path d="M74860 77227
L75141 77227
" />
<path d="M74804 77395
L75000 76805
L75197 77395
" />
<path d="M75394 77339
L75422 77367
L75394 77395
L75366 77367
L75394 77339
L75394 77395
" />
<path d="M76575 77395
L76575 76805
" />
<path d="M76631 77171
L76800 77395
" />
<path d="M76800 77002
L76575 77227
" />
<path d="M77053 77395
L77053 77002
" />
<path d="M77053 76805
L77025 76833
L77053 76861
L77081 76833
L77053 76805
L77053 76861
" />
<path d="M77588 77367
L77531 77395
L77419 77395
L77363 77367
L77334 77339
L77306 77283
L77306 77114
L77334 77058
L77363 77030
L77419 77002
L77531 77002
L77588 77030
" />
<path d="M78094 77395
L78094 77086
L78066 77030
L78009 77002
L77897 77002
L77841 77030
" />
<path d="M78094 77367
L78037 77395
L77897 77395
L77841 77367
L77813 77311
L77813 77255
L77841 77199
L77897 77171
L78037 77171
L78094 77142
" />
<path d="M78628 77395
L78628 76805
" />
<path d="M78628 77367
L78572 77395
L78459 77395
L78403 77367
L78375 77339
L78347 77283
L78347 77114
L78375 77058
L78403 77030
L78459 77002
L78572 77002
L78628 77030
" />
<path d="M79612 77002
L79612 77395
" />
<path d="M79472 76777
L79331 77199
L79697 77199
" />
<path d="M79922 77339
L79950 77367
L79922 77395
L79894 77367
L79922 77339
L79922 77395
" />
<path d="M80315 76805
L80372 76805
L80428 76833
L80456 76861
L80484 76917
L80512 77030
L80512 77171
L80484 77283
L80456 77339
L80428 77367
L80372 77395
L80315 77395
L80259 77367
L80231 77339
L80203 77283
L80175 77171
L80175 77030
L80203 76917
L80231 76861
L80259 76833
L80315 76805
" />
<path d="M80765 77339
L80793 77367
L80765 77395
L80737 77367
L80765 77339
L80765 77395
" />
<path d="M81018 76861
L81046 76833
L81103 76805
L81243 76805
L81300 76833
L81328 76861
L81356 76917
L81356 76974
L81328 77058
L80990 77395
L81356 77395
" />
<path d="M81609 77171
L82059 77171
" />
<path d="M81834 77395
L81834 76946
" />
<path d="M82593 77395
L82593 76805
" />
<path d="M82593 77367
L82537 77395
L82424 77395
L82368 77367
L82340 77339
L82312 77283
L82312 77114
L82340 77058
L82368 77030
L82424 77002
L82537 77002
L82593 77030
" />
<path d="M82790 77002
L83015 77002
" />
<path d="M82874 77395
L82874 76889
L82903 76833
L82959 76805
L83015 76805
" />
<path d="M83184 77367
L83240 77395
L83352 77395
L83409 77367
L83437 77311
L83437 77283
L83409 77227
L83352 77199
L83268 77199
L83212 77171
L83184 77114
L83184 77086
L83212 77030
L83268 77002
L83352 77002
L83409 77030
" />
<path d="M83943 77002
L83943 77480
L83915 77536
L83887 77564
L83831 77592
L83746 77592
L83690 77564
" />
<path d="M83943 77367
L83887 77395
L83774 77395
L83718 77367
L83690 77339
L83662 77283
L83662 77114
L83690 77058
L83718 77030
L83774 77002
L83887 77002
L83943 77030
" />
<path d="M84534 77395
L84196 77395
" />
<path d="M84365 77395
L84365 76805
L84309 76889
L84252 76946
L84196 76974
" />
<path d="M84787 77171
L85237 77171
" />
<path d="M85490 77367
L85546 77395
L85658 77395
L85715 77367
L85743 77311
L85743 77283
L85715 77227
L85658 77199
L85574 77199
L85518 77171
L85490 77114
L85490 77086
L85518 77030
L85574 77002
L85658 77002
L85715 77030
" />
<path d="M85912 77002
L86136 77002
" />
<path d="M85996 76805
L85996 77311
L86024 77367
L86080 77395
L86136 77395
" />
<path d="M86586 77395
L86586 77086
L86558 77030
L86502 77002
L86390 77002
L86333 77030
" />
<path d="M86586 77367
L86530 77395
L86390 77395
L86333 77367
L86305 77311
L86305 77255
L86333 77199
L86390 77171
L86530 77171
L86586 77142
" />
<path d="M86868 77395
L86868 76805
" />
<path d="M86868 77030
L86924 77002
L87036 77002
L87093 77030
L87121 77058
L87149 77114
L87149 77283
L87121 77339
L87093 77367
L87036 77395
L86924 77395
L86868 77367
" />
<path d="M87486 77395
L87430 77367
L87402 77311
L87402 76805
" />
<path d="M87936 77367
L87880 77395
L87768 77395
L87711 77367
L87683 77311
L87683 77086
L87711 77030
L87768 77002
L87880 77002
L87936 77030
L87964 77086
L87964 77142
L87683 77199
" />
<path d="M69685 75396
L112205 75396
" />
</g>
<g style="fill:#000000; fill-opacity:0.0; 
stroke:#000000; stroke-width:118.11; stroke-opacity:1; 
stroke-linecap:round; stroke-linejoin:round;">
<path d="M104022 76293
L103825 76012
" />
<path d="M103684 76293
L103684 75703
L103909 75703
L103965 75731
L103994 75759
L104022 75815
L104022 75899
L103994 75956
L103965 75984
L103909 76012
L103684 76012
" />
<path d="M104500 76265
L104444 76293
L104331 76293
L104275 76265
L104247 76209
L104247 75984
L104275 75928
L104331 75899
L104444 75899
L104500 75928
L104528 75984
L104528 76040
L104247 76096
" />
<path d="M104725 75899
L104865 76293
L105006 75899
" />
<path d="M105231 76237
L105259 76265
L105231 76293
L105203 76265
L105231 76237
L105231 76293
" />
<path d="M105231 75928
L105259 75956
L105231 75984
L105203 75956
L105231 75928
L105231 75984
" />
</g>
<g style="fill:#000000; fill-opacity:0.0; 
stroke:#000000; stroke-width:59.0551; stroke-opacity:1; 
stroke-linecap:round; stroke-linejoin:round;">
<path d="M70192 76265
L70276 76293
L70417 76293
L70473 76265
L70501 76237
L70529 76181
L70529 76124
L70501 76068
L70473 76040
L70417 76012
L70304 75984
L70248 75956
L70220 75928
L70192 75871
L70192 75815
L70220 75759
L70248 75731
L70304 75703
L70445 75703
L70529 75731
" />
<path d="M70782 76293
L70782 75899
" />
<path d="M70782 75703
L70754 75731
L70782 75759
L70810 75731
L70782 75703
L70782 75759
" />
<path d="M71007 75899
L71316 75899
L71007 76293
L71316 76293
" />
<path d="M71766 76265
L71710 76293
L71598 76293
L71541 76265
L71513 76209
L71513 75984
L71541 75928
L71598 75899
L71710 75899
L71766 75928
L71795 75984
L71795 76040
L71513 76096
" />
<path d="M72048 76237
L72076 76265
L72048 76293
L72019 76265
L72048 76237
L72048 76293
" />
<path d="M72048 75928
L72076 75956
L72048 75984
L72019 75956
L72048 75928
L72048 75984
" />
<path d="M72751 76124
L73032 76124
" />
<path d="M72694 76293
L72891 75703
L73088 76293
" />
<path d="M73538 75899
L73538 76293
" />
<path d="M73397 75674
L73257 76096
L73622 76096
" />
<path d="M103684 77395
L103684 76805
" />
<path d="M104219 77395
L104219 76805
" />
<path d="M104219 77367
L104162 77395
L104050 77395
L103994 77367
L103965 77339
L103937 77283
L103937 77114
L103965 77058
L103994 77030
L104050 77002
L104162 77002
L104219 77030
" />
<path d="M104500 77339
L104528 77367
L104500 77395
L104472 77367
L104500 77339
L104500 77395
" />
<path d="M104500 77030
L104528 77058
L104500 77086
L104472 77058
L104500 77030
L104500 77086
" />
<path d="M105540 77395
L105203 77395
" />
<path d="M105372 77395
L105372 76805
L105315 76889
L105259 76946
L105203 76974
" />
<path d="M106215 76777
L105709 77536
" />
<path d="M106721 77395
L106384 77395
" />
<path d="M106553 77395
L106553 76805
L106496 76889
L106440 76946
L106384 76974
" />
<path d="M69685 73821
L112205 73821
" />
</g>
<g style="fill:#000000; fill-opacity:0.0; 
stroke:#000000; stroke-width:157.48; stroke-opacity:1; 
stroke-linecap:round; stroke-linejoin:round;">
<path d="M70257 74099
L70707 74099
" />
<path d="M70384 74886
L70482 74099
" />
<path d="M70871 74886
L70937 74361
" />
<path d="M70970 74099
L70927 74136
L70960 74174
L71002 74136
L70970 74099
L70960 74174
" />
<path d="M71199 74361
L71499 74361
" />
<path d="M71345 74099
L71260 74774
L71288 74849
L71359 74886
L71434 74886
" />
<path d="M71809 74886
L71738 74849
L71710 74774
L71795 74099
" />
<path d="M72413 74849
L72334 74886
L72184 74886
L72113 74849
L72085 74774
L72123 74474
L72169 74399
L72249 74361
L72399 74361
L72469 74399
L72498 74474
L72488 74549
L72104 74624
" />
<path d="M72793 74811
L72826 74849
L72783 74886
L72751 74849
L72793 74811
L72783 74886
" />
<path d="M72844 74399
L72877 74436
L72835 74474
L72802 74436
L72844 74399
L72835 74474
" />
<path d="M73744 74099
L74194 74099
" />
<path d="M73871 74886
L73969 74099
" />
<path d="M74410 74474
L74672 74474
" />
<path d="M74733 74886
L74358 74886
L74457 74099
L74832 74099
" />
<path d="M75521 74886
L75305 74511
" />
<path d="M75071 74886
L75169 74099
L75469 74099
L75539 74136
L75572 74174
L75600 74249
L75586 74361
L75539 74436
L75497 74474
L75418 74511
L75118 74511
" />
<path d="M75858 74886
L75956 74099
L76149 74661
L76481 74099
L76383 74886
" />
<path d="M77006 74099
L77156 74099
L77227 74136
L77292 74211
L77311 74361
L77278 74624
L77222 74774
L77138 74849
L77058 74886
L76908 74886
L76838 74849
L76772 74774
L76753 74624
L76786 74361
L76842 74211
L76927 74136
L77006 74099
" />
<path d="M77550 74849
L77658 74886
L77845 74886
L77925 74849
L77967 74811
L78014 74736
L78023 74661
L77995 74586
L77962 74549
L77892 74511
L77747 74474
L77677 74436
L77644 74399
L77616 74324
L77625 74249
L77672 74174
L77714 74136
L77794 74099
L77981 74099
L78089 74136
" />
<path d="M78319 74099
L78769 74099
" />
<path d="M78445 74886
L78544 74099
" />
<path d="M78923 74661
L79298 74661
" />
<path d="M78820 74886
L79181 74099
L79345 74886
" />
<path d="M79594 74099
L80043 74099
" />
<path d="M79720 74886
L79819 74099
" />
<path d="M80456 74099
L80606 74099
L80676 74136
L80742 74211
L80761 74361
L80728 74624
L80672 74774
L80587 74849
L80507 74886
L80358 74886
L80287 74849
L80222 74774
L80203 74624
L80236 74361
L80292 74211
L80376 74136
L80456 74099
" />
<path d="M81632 74886
L81731 74099
L81918 74099
L82026 74136
L82092 74211
L82120 74286
L82139 74436
L82124 74549
L82068 74699
L82021 74774
L81937 74849
L81820 74886
L81632 74886
" />
<path d="M82420 74886
L82518 74099
" />
<path d="M83109 74474
L82846 74474
" />
<path d="M82795 74886
L82893 74099
L83268 74099
" />
<path d="M83521 74474
L83784 74474
" />
<path d="M83845 74886
L83470 74886
L83568 74099
L83943 74099
" />
<path d="M84632 74886
L84416 74511
" />
<path d="M84182 74886
L84280 74099
L84580 74099
L84651 74136
L84684 74174
L84712 74249
L84698 74361
L84651 74436
L84609 74474
L84529 74511
L84229 74511
" />
<path d="M85021 74474
L85283 74474
" />
<path d="M85344 74886
L84969 74886
L85068 74099
L85443 74099
" />
<path d="M85682 74886
L85780 74099
L86132 74886
L86230 74099
" />
<path d="M86966 74811
L86924 74849
L86807 74886
L86732 74886
L86624 74849
L86558 74774
L86530 74699
L86511 74549
L86525 74436
L86582 74286
L86629 74211
L86713 74136
L86830 74099
L86905 74099
L87013 74136
L87046 74174
" />
<path d="M87294 74886
L87393 74099
" />
<path d="M87660 74661
L88035 74661
" />
<path d="M87557 74886
L87918 74099
L88082 74886
" />
<path d="M88719 74886
L88344 74886
L88442 74099
" />
<path d="M89581 74886
L89680 74099
L90031 74886
L90130 74099
" />
<path d="M90406 74886
L90505 74099
" />
<path d="M90767 74099
L90931 74886
L91292 74099
" />
<path d="M91508 74474
L91770 74474
" />
<path d="M91831 74886
L91456 74886
L91555 74099
L91930 74099
" />
<path d="M92543 74886
L92169 74886
L92267 74099
" />
<path d="M93406 74886
L93504 74099
L93692 74099
L93800 74136
L93865 74211
L93893 74286
L93912 74436
L93898 74549
L93842 74699
L93795 74774
L93711 74849
L93593 74886
L93406 74886
" />
<path d="M94245 74474
L94507 74474
" />
<path d="M94568 74886
L94193 74886
L94292 74099
L94667 74099
" />
<path d="M95496 74661
L95871 74661
" />
<path d="M95393 74886
L95754 74099
L95918 74886
" />
<path d="M96687 74136
L96616 74099
L96504 74099
L96387 74136
L96302 74211
L96256 74286
L96199 74436
L96185 74549
L96204 74699
L96232 74774
L96298 74849
L96406 74886
L96480 74886
L96598 74849
L96640 74811
L96673 74549
L96523 74549
" />
<path d="M97066 74099
L96987 74736
L97015 74811
L97048 74849
L97118 74886
L97268 74886
L97348 74849
L97390 74811
L97437 74736
L97516 74099
" />
<path d="M97783 74661
L98158 74661
" />
<path d="M97680 74886
L98041 74099
L98205 74886
" />
</g>
<g style="fill:#000000; fill-opacity:0.0; 
stroke:#000000; stroke-width:59.0551; stroke-opacity:1; 
stroke-linecap:round; stroke-linejoin:round;">
<path d="M70417 73070
L70220 73070
" />
<path d="M70220 73380
L70220 72789
L70501 72789
" />
<path d="M70726 73380
L70726 72986
" />
<path d="M70726 72789
L70698 72817
L70726 72845
L70754 72817
L70726 72789
L70726 72845
" />
<path d="M71091 73380
L71035 73352
L71007 73295
L71007 72789
" />
<path d="M71541 73352
L71485 73380
L71373 73380
L71316 73352
L71288 73295
L71288 73070
L71316 73014
L71373 72986
L71485 72986
L71541 73014
L71570 73070
L71570 73127
L71288 73183
" />
<path d="M71823 73323
L71851 73352
L71823 73380
L71795 73352
L71823 73323
L71823 73380
" />
<path d="M71823 73014
L71851 73042
L71823 73070
L71795 73042
L71823 73014
L71823 73070
" />
<path d="M72526 73352
L72582 73380
L72694 73380
L72751 73352
L72779 73295
L72779 73267
L72751 73211
L72694 73183
L72610 73183
L72554 73155
L72526 73099
L72526 73070
L72554 73014
L72610 72986
L72694 72986
L72751 73014
" />
<path d="M73257 73352
L73201 73380
L73088 73380
L73032 73352
L73004 73295
L73004 73070
L73032 73014
L73088 72986
L73201 72986
L73257 73014
L73285 73070
L73285 73127
L73004 73183
" />
<path d="M73538 72986
L73538 73380
" />
<path d="M73538 73042
L73566 73014
L73622 72986
L73707 72986
L73763 73014
L73791 73070
L73791 73380
" />
<path d="M74044 73352
L74100 73380
L74213 73380
L74269 73352
L74297 73295
L74297 73267
L74269 73211
L74213 73183
L74129 73183
L74072 73155
L74044 73099
L74044 73070
L74072 73014
L74129 72986
L74213 72986
L74269 73014
" />
<path d="M74635 73380
L74579 73352
L74550 73323
L74522 73267
L74522 73099
L74550 73042
L74579 73014
L74635 72986
L74719 72986
L74775 73014
L74804 73042
L74832 73099
L74832 73267
L74804 73323
L74775 73352
L74719 73380
L74635 73380
" />
<path d="M75085 73380
L75085 72986
" />
<path d="M75085 73099
L75113 73042
L75141 73014
L75197 72986
L75253 72986
" />
<path d="M75310 73436
L75760 73436
" />
<path d="M75900 72986
L75900 73380
" />
<path d="M75900 73042
L75928 73014
L75985 72986
L76069 72986
L76125 73014
L76153 73070
L76153 73380
" />
<path d="M76435 73380
L76435 72986
" />
<path d="M76435 72789
L76406 72817
L76435 72845
L76463 72817
L76435 72789
L76435 72845
" />
<path d="M76660 72986
L76800 73380
L76941 72986
" />
<path d="M77391 73352
L77334 73380
L77222 73380
L77166 73352
L77138 73295
L77138 73070
L77166 73014
L77222 72986
L77334 72986
L77391 73014
L77419 73070
L77419 73127
L77138 73183
" />
<path d="M77756 73380
L77700 73352
L77672 73295
L77672 72789
" />
<path d="M77841 73436
L78291 73436
" />
<path d="M78431 73380
L78431 72986
" />
<path d="M78431 73042
L78459 73014
L78516 72986
L78600 72986
L78656 73014
L78684 73070
L78684 73380
" />
<path d="M78684 73070
L78712 73014
L78769 72986
L78853 72986
L78909 73014
L78937 73070
L78937 73380
" />
<path d="M79472 73380
L79472 73070
L79444 73014
L79387 72986
L79275 72986
L79219 73014
" />
<path d="M79472 73352
L79415 73380
L79275 73380
L79219 73352
L79190 73295
L79190 73239
L79219 73183
L79275 73155
L79415 73155
L79472 73127
" />
<path d="M79753 73380
L79753 72986
" />
<path d="M79753 72789
L79725 72817
L79753 72845
L79781 72817
L79753 72789
L79753 72845
" />
<path d="M80034 72986
L80034 73380
" />
<path d="M80034 73042
L80062 73014
L80118 72986
L80203 72986
L80259 73014
L80287 73070
L80287 73380
" />
<path d="M80568 73323
L80597 73352
L80568 73380
L80540 73352
L80568 73323
L80568 73380
" />
<path d="M80850 73380
L80850 72789
" />
<path d="M80906 73155
L81075 73380
" />
<path d="M81075 72986
L80850 73211
" />
<path d="M81328 73380
L81328 72986
" />
<path d="M81328 72789
L81300 72817
L81328 72845
L81356 72817
L81328 72789
L81328 72845
" />
<path d="M81862 73352
L81806 73380
L81693 73380
L81637 73352
L81609 73323
L81581 73267
L81581 73099
L81609 73042
L81637 73014
L81693 72986
L81806 72986
L81862 73014
" />
<path d="M82368 73380
L82368 73070
L82340 73014
L82284 72986
L82171 72986
L82115 73014
" />
<path d="M82368 73352
L82312 73380
L82171 73380
L82115 73352
L82087 73295
L82087 73239
L82115 73183
L82171 73155
L82312 73155
L82368 73127
" />
<path d="M82903 73380
L82903 72789
" />
<path d="M82903 73352
L82846 73380
L82734 73380
L82678 73352
L82649 73323
L82621 73267
L82621 73099
L82649 73042
L82678 73014
L82734 72986
L82846 72986
L82903 73014
" />
<path d="M83043 73436
L83493 73436
" />
<path d="M83634 72986
L83634 73577
" />
<path d="M83634 73014
L83690 72986
L83802 72986
L83859 73014
L83887 73042
L83915 73099
L83915 73267
L83887 73323
L83859 73352
L83802 73380
L83690 73380
L83634 73352
" />
<path d="M84421 73352
L84365 73380
L84252 73380
L84196 73352
L84168 73323
L84140 73267
L84140 73099
L84168 73042
L84196 73014
L84252 72986
L84365 72986
L84421 73014
" />
<path d="M84674 73380
L84674 72789
" />
<path d="M84674 73014
L84730 72986
L84843 72986
L84899 73014
L84927 73042
L84955 73099
L84955 73267
L84927 73323
L84899 73352
L84843 73380
L84730 73380
L84674 73352
" />
<path d="M69685 71459
L112205 71459
" />
<path d="M70192 72289
L70276 72317
L70417 72317
L70473 72289
L70501 72260
L70529 72204
L70529 72148
L70501 72092
L70473 72064
L70417 72036
L70304 72007
L70248 71979
L70220 71951
L70192 71895
L70192 71839
L70220 71782
L70248 71754
L70304 71726
L70445 71726
L70529 71754
" />
<path d="M70782 72317
L70782 71726
" />
<path d="M71035 72317
L71035 72007
L71007 71951
L70951 71923
L70867 71923
L70810 71951
L70782 71979
" />
<path d="M71541 72289
L71485 72317
L71373 72317
L71316 72289
L71288 72232
L71288 72007
L71316 71951
L71373 71923
L71485 71923
L71541 71951
L71570 72007
L71570 72064
L71288 72120
" />
<path d="M72048 72289
L71991 72317
L71879 72317
L71823 72289
L71795 72232
L71795 72007
L71823 71951
L71879 71923
L71991 71923
L72048 71951
L72076 72007
L72076 72064
L71795 72120
" />
<path d="M72244 71923
L72469 71923
" />
<path d="M72329 71726
L72329 72232
L72357 72289
L72413 72317
L72469 72317
" />
<path d="M72666 72260
L72694 72289
L72666 72317
L72638 72289
L72666 72260
L72666 72317
" />
<path d="M72666 71951
L72694 71979
L72666 72007
L72638 71979
L72666 71951
L72666 72007
" />
</g>
<g style="fill:#000000; fill-opacity:0.0; 
stroke:#000000; stroke-width:118.11; stroke-opacity:1; 
stroke-linecap:round; stroke-linejoin:round;">
<path d="M70220 71136
L70220 70742
" />
<path d="M70220 70798
L70248 70770
L70304 70742
L70388 70742
L70445 70770
L70473 70826
L70473 71136
" />
<path d="M70473 70826
L70501 70770
L70557 70742
L70642 70742
L70698 70770
L70726 70826
L70726 71136
" />
<path d="M71007 71136
L71007 70742
" />
<path d="M71007 70545
L70979 70573
L71007 70601
L71035 70573
L71007 70545
L71007 70601
" />
<path d="M71260 71108
L71316 71136
L71429 71136
L71485 71108
L71513 71051
L71513 71023
L71485 70967
L71429 70939
L71345 70939
L71288 70911
L71260 70854
L71260 70826
L71288 70770
L71345 70742
L71429 70742
L71485 70770
" />
<path d="M71851 71136
L71795 71108
L71766 71079
L71738 71023
L71738 70854
L71766 70798
L71795 70770
L71851 70742
L71935 70742
L71991 70770
L72019 70798
L72048 70854
L72048 71023
L72019 71079
L71991 71108
L71935 71136
L71851 71136
" />
<path d="M72385 71136
L72329 71108
L72301 71051
L72301 70545
" />
<path d="M72863 71136
L72863 70826
L72835 70770
L72779 70742
L72666 70742
L72610 70770
" />
<path d="M72863 71108
L72807 71136
L72666 71136
L72610 71108
L72582 71051
L72582 70995
L72610 70939
L72666 70911
L72807 70911
L72863 70883
" />
<path d="M73144 71136
L73144 70742
" />
<path d="M73144 70854
L73172 70798
L73201 70770
L73257 70742
L73313 70742
" />
<path d="M73763 71108
L73707 71136
L73594 71136
L73538 71108
L73510 71079
L73482 71023
L73482 70854
L73510 70798
L73538 70770
L73594 70742
L73707 70742
L73763 70770
" />
<path d="M74269 71136
L74269 70826
L74241 70770
L74185 70742
L74072 70742
L74016 70770
" />
<path d="M74269 71108
L74213 71136
L74072 71136
L74016 71108
L73988 71051
L73988 70995
L74016 70939
L74072 70911
L74213 70911
L74269 70883
" />
<path d="M74522 71108
L74579 71136
L74691 71136
L74747 71108
L74775 71051
L74775 71023
L74747 70967
L74691 70939
L74607 70939
L74550 70911
L74522 70854
L74522 70826
L74550 70770
L74607 70742
L74691 70742
L74747 70770
" />
<path d="M75253 71108
L75197 71136
L75085 71136
L75028 71108
L75000 71051
L75000 70826
L75028 70770
L75085 70742
L75197 70742
L75253 70770
L75282 70826
L75282 70883
L75000 70939
" />
<path d="M75535 71136
L75535 70742
" />
<path d="M75535 70854
L75563 70798
L75591 70770
L75647 70742
L75703 70742
" />
<path d="M75985 71136
L75928 71108
L75900 71079
L75872 71023
L75872 70854
L75900 70798
L75928 70770
L75985 70742
L76069 70742
L76125 70770
L76153 70798
L76181 70854
L76181 71023
L76153 71079
L76125 71108
L76069 71136
L75985 71136
" />
<path d="M76435 71079
L76463 71108
L76435 71136
L76406 71108
L76435 71079
L76435 71136
" />
<path d="M76969 71108
L76913 71136
L76800 71136
L76744 71108
L76716 71079
L76688 71023
L76688 70854
L76716 70798
L76744 70770
L76800 70742
L76913 70742
L76969 70770
" />
<path d="M77306 71136
L77250 71108
L77222 71079
L77194 71023
L77194 70854
L77222 70798
L77250 70770
L77306 70742
L77391 70742
L77447 70770
L77475 70798
L77503 70854
L77503 71023
L77475 71079
L77447 71108
L77391 71136
L77306 71136
" />
<path d="M77756 71136
L77756 70742
" />
<path d="M77756 70798
L77784 70770
L77841 70742
L77925 70742
L77981 70770
L78009 70826
L78009 71136
" />
<path d="M78009 70826
L78037 70770
L78094 70742
L78178 70742
L78234 70770
L78262 70826
L78262 71136
" />
</g>
<g style="fill:#000000; fill-opacity:0.0; 
stroke:#000000; stroke-width:59.0551; stroke-opacity:1; 
stroke-linecap:round; stroke-linejoin:round;">
<path d="M77559 75396
L77559 76577
" />
<path d="M102756 75396
L102756 77955
" />
</g>
<g style="fill:#000000; fill-opacity:0.0; 
stroke:#000000; stroke-width:78.7402; stroke-opacity:1; 
stroke-linecap:round; stroke-linejoin:round;">
<circle cx="13346.5" cy="25039.4" r="162.327" /> 
</g>
<g style="fill:#000000; fill-opacity:0.0; 
stroke:#000000; stroke-width:98.4252; stroke-opacity:1; 
stroke-linecap:round; stroke-linejoin:round;">
<path d="M15669 42152
L15643 42178
L15616 42257
L15616 42309
L15643 42388
L15695 42440
L15748 42467
L15853 42493
L15931 42493
L16036 42467
L16089 42440
L16141 42388
L16167 42309
L16167 42257
L16141 42178
L16115 42152
" />
<path d="M16167 41811
L16167 41706
L16141 41653
L16089 41601
L15984 41574
L15800 41574
L15695 41601
L15643 41653
L15616 41706
L15616 41811
L15643 41863
L15695 41916
L15800 41942
L15984 41942
L16089 41916
L16141 41863
L16167 41811
" />
<path d="M15616 41338
L16167 41338
L15774 41154
L16167 40971
L15616 40971
" />
<path d="M16167 40708
L15721 40708
L15669 40682
L15643 40656
L15616 40603
L15616 40498
L15643 40446
L15669 40419
L15721 40393
L16167 40393
" />
<path d="M16377 40498
L16299 40577
" />
<path d="M15616 40131
L16167 40131
L15616 39816
L16167 39816
" />
</g>
<g style="fill:#000000; fill-opacity:0.0; 
stroke:#000000; stroke-width:78.7402; stroke-opacity:1; 
stroke-linecap:round; stroke-linejoin:round;">
<circle cx="12834.6" cy="41535.4" r="162.327" /> 
<circle cx="49252" cy="41535.4" r="162.327" /> 
<circle cx="49015.7" cy="15000" r="162.327" /> 
</g>
<g style="fill:#000000; fill-opacity:0.0; 
stroke:#000000; stroke-width:137.795; stroke-opacity:1; 
stroke-linecap:round; stroke-linejoin:round;">
<path d="M43912 15352
L43912 14879
" />
<path d="M43912 14947
L43878 14913
L43811 14879
L43709 14879
L43642 14913
L43608 14980
L43608 15352
" />
<path d="M43608 14980
L43574 14913
L43507 14879
L43406 14879
L43338 14913
L43304 14980
L43304 15352
" />
<path d="M42967 15352
L42967 14879
" />
<path d="M42967 14643
L43001 14677
L42967 14710
L42933 14677
L42967 14643
L42967 14710
" />
<path d="M42663 15318
L42596 15352
L42461 15352
L42393 15318
L42359 15250
L42359 15217
L42393 15149
L42461 15115
L42562 15115
L42629 15082
L42663 15014
L42663 14980
L42629 14913
L42562 14879
L42461 14879
L42393 14913
" />
<path d="M41955 15352
L42022 15318
L42056 15284
L42089 15217
L42089 15014
L42056 14947
L42022 14913
L41955 14879
L41853 14879
L41786 14913
L41752 14947
L41718 15014
L41718 15217
L41752 15284
L41786 15318
L41853 15352
L41955 15352
" />
<path d="M41313 15352
L41381 15318
L41415 15250
L41415 14643
" />
<path d="M40740 15352
L40740 14980
L40773 14913
L40841 14879
L40976 14879
L41043 14913
" />
<path d="M40740 15318
L40807 15352
L40976 15352
L41043 15318
L41077 15250
L41077 15183
L41043 15115
L40976 15082
L40807 15082
L40740 15048
" />
<path d="M40402 15352
L40402 14879
" />
<path d="M40402 15014
L40368 14947
L40335 14913
L40267 14879
L40200 14879
" />
<path d="M39660 15318
L39727 15352
L39862 15352
L39930 15318
L39964 15284
L39997 15217
L39997 15014
L39964 14947
L39930 14913
L39862 14879
L39727 14879
L39660 14913
" />
<path d="M39052 15352
L39052 14980
L39086 14913
L39154 14879
L39289 14879
L39356 14913
" />
<path d="M39052 15318
L39120 15352
L39289 15352
L39356 15318
L39390 15250
L39390 15183
L39356 15115
L39289 15082
L39120 15082
L39052 15048
" />
<path d="M38749 15318
L38681 15352
L38546 15352
L38479 15318
L38445 15250
L38445 15217
L38479 15149
L38546 15115
L38647 15115
L38715 15082
L38749 15014
L38749 14980
L38715 14913
L38647 14879
L38546 14879
L38479 14913
" />
<path d="M37871 15318
L37939 15352
L38074 15352
L38141 15318
L38175 15250
L38175 14980
L38141 14913
L38074 14879
L37939 14879
L37871 14913
L37838 14980
L37838 15048
L38175 15115
" />
<path d="M37534 15352
L37534 14879
" />
<path d="M37534 15014
L37500 14947
L37466 14913
L37399 14879
L37331 14879
" />
<path d="M36994 15352
L37061 15318
L37095 15284
L37129 15217
L37129 15014
L37095 14947
L37061 14913
L36994 14879
L36893 14879
L36825 14913
L36791 14947
L36758 15014
L36758 15217
L36791 15284
L36825 15318
L36893 15352
L36994 15352
" />
<path d="M36454 15284
L36420 15318
L36454 15352
L36488 15318
L36454 15284
L36454 15352
" />
<path d="M35813 15318
L35880 15352
L36015 15352
L36083 15318
L36116 15284
L36150 15217
L36150 15014
L36116 14947
L36083 14913
L36015 14879
L35880 14879
L35813 14913
" />
<path d="M35408 15352
L35475 15318
L35509 15284
L35543 15217
L35543 15014
L35509 14947
L35475 14913
L35408 14879
L35307 14879
L35239 14913
L35205 14947
L35172 15014
L35172 15217
L35205 15284
L35239 15318
L35307 15352
L35408 15352
" />
<path d="M34868 15352
L34868 14879
" />
<path d="M34868 14947
L34834 14913
L34767 14879
L34665 14879
L34598 14913
L34564 14980
L34564 15352
" />
<path d="M34564 14980
L34530 14913
L34463 14879
L34362 14879
L34294 14913
L34260 14980
L34260 15352
" />
<path d="M44637 16482
L44637 16110
L44671 16043
L44739 16009
L44874 16009
L44941 16043
" />
<path d="M44637 16448
L44705 16482
L44874 16482
L44941 16448
L44975 16380
L44975 16313
L44941 16245
L44874 16212
L44705 16212
L44637 16178
" />
<path d="M44300 16009
L44300 16718
" />
<path d="M44300 16043
L44232 16009
L44097 16009
L44030 16043
L43996 16077
L43962 16144
L43962 16347
L43996 16414
L44030 16448
L44097 16482
L44232 16482
L44300 16448
" />
<path d="M43355 16482
L43355 16110
L43389 16043
L43456 16009
L43591 16009
L43659 16043
" />
<path d="M43355 16448
L43422 16482
L43591 16482
L43659 16448
L43692 16380
L43692 16313
L43659 16245
L43591 16212
L43422 16212
L43355 16178
" />
<path d="M42714 16448
L42781 16482
L42916 16482
L42984 16448
L43017 16414
L43051 16347
L43051 16144
L43017 16077
L42984 16043
L42916 16009
L42781 16009
L42714 16043
" />
<path d="M42410 16482
L42410 15773
" />
<path d="M42106 16482
L42106 16110
L42140 16043
L42208 16009
L42309 16009
L42376 16043
L42410 16077
" />
<path d="M41499 16448
L41566 16482
L41701 16482
L41769 16448
L41803 16380
L41803 16110
L41769 16043
L41701 16009
L41566 16009
L41499 16043
L41465 16110
L41465 16178
L41803 16245
" />
<path d="M41161 16482
L41161 15773
" />
<path d="M41161 16043
L41094 16009
L40959 16009
L40892 16043
L40858 16077
L40824 16144
L40824 16347
L40858 16414
L40892 16448
L40959 16482
L41094 16482
L41161 16448
" />
<path d="M40217 16448
L40284 16482
L40419 16482
L40487 16448
L40520 16414
L40554 16347
L40554 16144
L40520 16077
L40487 16043
L40419 16009
L40284 16009
L40217 16043
" />
<path d="M39913 16009
L39913 16482
" />
<path d="M39913 16077
L39879 16043
L39812 16009
L39710 16009
L39643 16043
L39609 16110
L39609 16482
" />
<path d="M38833 16144
L38867 16110
L38934 16077
L39002 16077
L39069 16110
L39103 16144
L39137 16212
L39137 16279
L39103 16347
L39069 16380
L39002 16414
L38934 16414
L38867 16380
L38833 16347
" />
<path d="M38833 16077
L38833 16347
L38799 16380
L38766 16380
L38698 16347
L38664 16279
L38664 16110
L38732 16009
L38833 15942
L38968 15908
L39103 15942
L39204 16009
L39272 16110
L39305 16245
L39272 16380
L39204 16482
L39103 16549
L38968 16583
L38833 16549
L38732 16482
" />
<path d="M38057 16009
L38057 16583
L38091 16650
L38124 16684
L38192 16718
L38293 16718
L38361 16684
" />
<path d="M38057 16448
L38124 16482
L38259 16482
L38327 16448
L38361 16414
L38394 16347
L38394 16144
L38361 16077
L38327 16043
L38259 16009
L38124 16009
L38057 16043
" />
<path d="M37719 16482
L37719 16009
" />
<path d="M37719 16077
L37686 16043
L37618 16009
L37517 16009
L37449 16043
L37416 16110
L37416 16482
" />
<path d="M37416 16110
L37382 16043
L37314 16009
L37213 16009
L37146 16043
L37112 16110
L37112 16482
" />
<path d="M36471 16482
L36471 16110
L36505 16043
L36572 16009
L36707 16009
L36775 16043
" />
<path d="M36471 16448
L36538 16482
L36707 16482
L36775 16448
L36808 16380
L36808 16313
L36775 16245
L36707 16212
L36538 16212
L36471 16178
" />
<path d="M36133 16482
L36133 16009
" />
<path d="M36133 15773
L36167 15807
L36133 15840
L36100 15807
L36133 15773
L36133 15840
" />
<path d="M35695 16482
L35762 16448
L35796 16380
L35796 15773
" />
<path d="M35425 16414
L35391 16448
L35425 16482
L35458 16448
L35425 16414
L35425 16482
" />
<path d="M34784 16448
L34851 16482
L34986 16482
L35053 16448
L35087 16414
L35121 16347
L35121 16144
L35087 16077
L35053 16043
L34986 16009
L34851 16009
L34784 16043
" />
<path d="M34379 16482
L34446 16448
L34480 16414
L34514 16347
L34514 16144
L34480 16077
L34446 16043
L34379 16009
L34277 16009
L34210 16043
L34176 16077
L34142 16144
L34142 16347
L34176 16414
L34210 16448
L34277 16482
L34379 16482
" />
<path d="M33839 16482
L33839 16009
" />
<path d="M33839 16077
L33805 16043
L33737 16009
L33636 16009
L33569 16043
L33535 16110
L33535 16482
" />
<path d="M33535 16110
L33501 16043
L33434 16009
L33332 16009
L33265 16043
L33231 16110
L33231 16482
" />
<path d="M43152 17578
L43051 17611
L42883 17611
L42815 17578
L42781 17544
L42748 17476
L42748 17409
L42781 17341
L42815 17308
L42883 17274
L43017 17240
L43085 17206
L43119 17173
L43152 17105
L43152 17038
L43119 16970
L43085 16937
L43017 16903
L42849 16903
L42748 16937
" />
<path d="M42174 17578
L42241 17611
L42376 17611
L42444 17578
L42478 17510
L42478 17240
L42444 17173
L42376 17139
L42241 17139
L42174 17173
L42140 17240
L42140 17308
L42478 17375
" />
<path d="M41836 17139
L41836 17611
" />
<path d="M41836 17206
L41803 17173
L41735 17139
L41634 17139
L41566 17173
L41533 17240
L41533 17611
" />
<path d="M41229 17578
L41161 17611
L41026 17611
L40959 17578
L40925 17510
L40925 17476
L40959 17409
L41026 17375
L41128 17375
L41195 17341
L41229 17274
L41229 17240
L41195 17173
L41128 17139
L41026 17139
L40959 17173
" />
<path d="M40520 17611
L40588 17578
L40622 17544
L40655 17476
L40655 17274
L40622 17206
L40588 17173
L40520 17139
L40419 17139
L40352 17173
L40318 17206
L40284 17274
L40284 17476
L40318 17544
L40352 17578
L40419 17611
L40520 17611
" />
<path d="M39980 17611
L39980 17139
" />
<path d="M39980 17274
L39947 17206
L39913 17173
L39845 17139
L39778 17139
" />
<path d="M38698 17611
L38698 16903
" />
<path d="M38698 17578
L38766 17611
L38901 17611
L38968 17578
L39002 17544
L39035 17476
L39035 17274
L39002 17206
L38968 17173
L38901 17139
L38766 17139
L38698 17173
" />
<path d="M38091 17578
L38158 17611
L38293 17611
L38361 17578
L38394 17510
L38394 17240
L38361 17173
L38293 17139
L38158 17139
L38091 17173
L38057 17240
L38057 17308
L38394 17375
" />
<path d="M37213 17139
L37213 17611
" />
<path d="M37213 17206
L37179 17173
L37112 17139
L37011 17139
L36943 17173
L36910 17240
L36910 17611
" />
<path d="M36572 17611
L36572 17139
" />
<path d="M36572 16903
L36606 16937
L36572 16970
L36538 16937
L36572 16903
L36572 16970
" />
<path d="M36302 17139
L36133 17611
L35965 17139
" />
<path d="M35425 17578
L35492 17611
L35627 17611
L35695 17578
L35728 17510
L35728 17240
L35695 17173
L35627 17139
L35492 17139
L35425 17173
L35391 17240
L35391 17308
L35728 17375
" />
<path d="M34986 17611
L35053 17578
L35087 17510
L35087 16903
" />
<path d="M41685 18471
L41145 18471
" />
<path d="M40301 18100
L40267 18066
L40200 18033
L40031 18033
L39964 18066
L39930 18100
L39896 18168
L39896 18235
L39930 18336
L40335 18741
L39896 18741
" />
<path d="M39457 18033
L39390 18033
L39322 18066
L39289 18100
L39255 18168
L39221 18303
L39221 18471
L39255 18606
L39289 18674
L39322 18708
L39390 18741
L39457 18741
L39525 18708
L39559 18674
L39592 18606
L39626 18471
L39626 18303
L39592 18168
L39559 18100
L39525 18066
L39457 18033
" />
<path d="M38546 18741
L38951 18741
" />
<path d="M38749 18741
L38749 18033
L38816 18134
L38884 18201
L38951 18235
" />
<path d="M37905 18033
L38242 18033
L38276 18370
L38242 18336
L38175 18303
L38006 18303
L37939 18336
L37905 18370
L37871 18438
L37871 18606
L37905 18674
L37939 18708
L38006 18741
L38175 18741
L38242 18708
L38276 18674
" />
<path d="M37028 18471
L36488 18471
" />
<path d="M42545 20141
L42579 20107
L42646 20006
L42680 19939
L42714 19838
L42748 19669
L42748 19534
L42714 19365
L42680 19264
L42646 19196
L42579 19095
L42545 19061
" />
<path d="M42275 19871
L42275 19163
L42039 19669
L41803 19163
L41803 19871
" />
<path d="M41364 19871
L41431 19838
L41465 19804
L41499 19736
L41499 19534
L41465 19466
L41431 19433
L41364 19399
L41263 19399
L41195 19433
L41161 19466
L41128 19534
L41128 19736
L41161 19804
L41195 19838
L41263 19871
L41364 19871
" />
<path d="M41229 19129
L41330 19230
" />
<path d="M40520 19871
L40520 19163
" />
<path d="M40520 19838
L40588 19871
L40723 19871
L40790 19838
L40824 19804
L40858 19736
L40858 19534
L40824 19466
L40790 19433
L40723 19399
L40588 19399
L40520 19433
" />
<path d="M39879 19399
L39879 19871
" />
<path d="M40183 19399
L40183 19770
L40149 19838
L40082 19871
L39980 19871
L39913 19838
L39879 19804
" />
<path d="M39440 19871
L39508 19838
L39542 19770
L39542 19163
" />
<path d="M39069 19871
L39137 19838
L39170 19804
L39204 19736
L39204 19534
L39170 19466
L39137 19433
L39069 19399
L38968 19399
L38901 19433
L38867 19466
L38833 19534
L38833 19736
L38867 19804
L38901 19838
L38968 19871
L39069 19871
" />
<path d="M37989 19871
L37989 19163
L37753 19669
L37517 19163
L37517 19871
" />
<path d="M36876 19871
L36876 19500
L36910 19433
L36977 19399
L37112 19399
L37179 19433
" />
<path d="M36876 19838
L36943 19871
L37112 19871
L37179 19838
L37213 19770
L37213 19703
L37179 19635
L37112 19601
L36943 19601
L36876 19568
" />
<path d="M36538 19871
L36538 19399
" />
<path d="M36538 19163
L36572 19196
L36538 19230
L36505 19196
L36538 19163
L36538 19230
" />
<path d="M36201 19399
L36201 19871
" />
<path d="M36201 19466
L36167 19433
L36100 19399
L35998 19399
L35931 19433
L35897 19500
L35897 19871
" />
<path d="M35627 20141
L35593 20107
L35526 20006
L35492 19939
L35458 19838
L35425 19669
L35425 19534
L35458 19365
L35492 19264
L35526 19196
L35593 19095
L35627 19061
" />
</g>
<g style="fill:#000000; fill-opacity:0.0; 
stroke:#000000; stroke-width:98.4252; stroke-opacity:1; 
stroke-linecap:round; stroke-linejoin:round;">
<path d="M39450 41379
L39450 40828
L39240 40828
L39187 40854
L39161 40880
L39135 40933
L39135 41011
L39161 41064
L39187 41090
L39240 41116
L39450 41116
" />
<path d="M38898 41379
L38898 40828
" />
<path d="M38636 41379
L38636 40828
L38321 41379
L38321 40828
" />
<path d="M37612 41379
L37507 41379
L37455 41353
L37429 41326
L37376 41248
L37350 41143
L37350 40933
L37376 40880
L37402 40854
L37455 40828
L37560 40828
L37612 40854
L37639 40880
L37665 40933
L37665 41064
L37639 41116
L37612 41143
L37560 41169
L37455 41169
L37402 41143
L37376 41116
L37350 41064
" />
<path d="M32056 41379
L32056 40828
L31846 40828
L31793 40854
L31767 40880
L31741 40933
L31741 41011
L31767 41064
L31793 41090
L31846 41116
L32056 41116
" />
<path d="M31505 41379
L31505 40828
" />
<path d="M31242 41379
L31242 40828
L30927 41379
L30927 40828
" />
<path d="M30166 41064
L30219 41038
L30245 41011
L30271 40959
L30271 40933
L30245 40880
L30219 40854
L30166 40828
L30061 40828
L30009 40854
L29982 40880
L29956 40933
L29956 40959
L29982 41011
L30009 41038
L30061 41064
L30166 41064
L30219 41090
L30245 41116
L30271 41169
L30271 41274
L30245 41326
L30219 41353
L30166 41379
L30061 41379
L30009 41353
L29982 41326
L29956 41274
L29956 41169
L29982 41116
L30009 41090
L30061 41064
" />
<path d="M21324 41383
L21324 40832
L21114 40832
L21061 40858
L21035 40884
L21009 40937
L21009 41015
L21035 41068
L21061 41094
L21114 41120
L21324 41120
" />
<path d="M20772 41383
L20772 40832
" />
<path d="M20510 41383
L20510 40832
L20195 41383
L20195 40832
" />
<path d="M19224 41383
L19539 41383
" />
<path d="M19381 41383
L19381 40832
L19434 40910
L19486 40963
L19539 40989
" />
<path d="M29394 40024
L29451 39996
L29479 39967
L29507 39911
L29507 39883
L29479 39827
L29451 39799
L29394 39771
L29282 39771
L29226 39799
L29197 39827
L29169 39883
L29169 39911
L29197 39967
L29226 39996
L29282 40024
L29394 40024
L29451 40052
L29479 40080
L29507 40136
L29507 40249
L29479 40305
L29451 40333
L29394 40361
L29282 40361
L29226 40333
L29197 40305
L29169 40249
L29169 40136
L29197 40080
L29226 40052
L29282 40024
" />
<path d="M28523 39771
L28129 39771
L28382 40361
" />
<path d="M27201 39771
L27313 39771
L27370 39799
L27398 39827
L27454 39911
L27482 40024
L27482 40249
L27454 40305
L27426 40333
L27370 40361
L27257 40361
L27201 40333
L27173 40305
L27145 40249
L27145 40108
L27173 40052
L27201 40024
L27257 39996
L27370 39996
L27426 40024
L27454 40052
L27482 40108
" />
<path d="M26160 39771
L26442 39771
L26470 40052
L26442 40024
L26385 39996
L26245 39996
L26188 40024
L26160 40052
L26132 40108
L26132 40249
L26160 40305
L26188 40333
L26245 40361
L26385 40361
L26442 40333
L26470 40305
" />
<path d="M25176 39967
L25176 40361
" />
<path d="M25317 39742
L25457 40164
L25092 40164
" />
<path d="M24473 39771
L24107 39771
L24304 39996
L24220 39996
L24164 40024
L24136 40052
L24107 40108
L24107 40249
L24136 40305
L24164 40333
L24220 40361
L24389 40361
L24445 40333
L24473 40305
" />
<path d="M23433 39827
L23404 39799
L23348 39771
L23208 39771
L23151 39799
L23123 39827
L23095 39883
L23095 39939
L23123 40024
L23461 40361
L23095 40361
" />
<path d="M22083 40361
L22420 40361
" />
<path d="M22251 40361
L22251 39771
L22308 39855
L22364 39911
L22420 39939
" />
<path d="M47329 40361
L47554 40361
" />
<path d="M47442 40361
L47442 39771
L47479 39855
L47517 39911
L47554 39939
" />
<path d="M46992 39771
L47067 39771
L47104 39799
L47123 39827
L47161 39911
L47179 40024
L47179 40249
L47161 40305
L47142 40333
L47104 40361
L47029 40361
L46992 40333
L46973 40305
L46954 40249
L46954 40108
L46973 40052
L46992 40024
L47029 39996
L47104 39996
L47142 40024
L47161 40052
L47179 40108
" />
<path d="M46279 40361
L46504 40361
" />
<path d="M46392 40361
L46392 39771
L46429 39855
L46467 39911
L46504 39939
" />
<path d="M45923 39771
L46111 39771
L46129 40052
L46111 40024
L46073 39996
L45979 39996
L45942 40024
L45923 40052
L45904 40108
L45904 40249
L45923 40305
L45942 40333
L45979 40361
L46073 40361
L46111 40333
L46129 40305
" />
<path d="M45230 40361
L45455 40361
" />
<path d="M45342 40361
L45342 39771
L45380 39855
L45417 39911
L45455 39939
" />
<path d="M44892 39967
L44892 40361
" />
<path d="M44986 39742
L45080 40164
L44836 40164
" />
<path d="M44180 40361
L44405 40361
" />
<path d="M44292 40361
L44292 39771
L44330 39855
L44367 39911
L44405 39939
" />
<path d="M44048 39771
L43805 39771
L43936 39996
L43880 39996
L43842 40024
L43823 40052
L43805 40108
L43805 40249
L43823 40305
L43842 40333
L43880 40361
L43992 40361
L44030 40333
L44048 40305
" />
<path d="M43130 40361
L43355 40361
" />
<path d="M43242 40361
L43242 39771
L43280 39855
L43317 39911
L43355 39939
" />
<path d="M42980 39827
L42961 39799
L42924 39771
L42830 39771
L42792 39799
L42774 39827
L42755 39883
L42755 39939
L42774 40024
L42999 40361
L42755 40361
" />
<path d="M42080 40361
L42305 40361
" />
<path d="M42192 40361
L42192 39771
L42230 39855
L42267 39911
L42305 39939
" />
<path d="M41705 40361
L41930 40361
" />
<path d="M41817 40361
L41817 39771
L41855 39855
L41892 39911
L41930 39939
" />
<path d="M41030 40361
L41255 40361
" />
<path d="M41143 40361
L41143 39771
L41180 39855
L41218 39911
L41255 39939
" />
<path d="M40786 39771
L40749 39771
L40711 39799
L40693 39827
L40674 39883
L40655 39996
L40655 40136
L40674 40249
L40693 40305
L40711 40333
L40749 40361
L40786 40361
L40824 40333
L40843 40305
L40861 40249
L40880 40136
L40880 39996
L40861 39883
L40843 39827
L40824 39799
L40786 39771
" />
<path d="M40168 40361
L40093 40361
L40055 40333
L40036 40305
L39999 40221
L39980 40108
L39980 39883
L39999 39827
L40018 39799
L40055 39771
L40130 39771
L40168 39799
L40186 39827
L40205 39883
L40205 40024
L40186 40080
L40168 40108
L40130 40136
L40055 40136
L40018 40108
L39999 40080
L39980 40024
" />
<path d="M12028 13804
L12501 13962
L12028 14119
" />
<path d="M12456 14547
L12478 14524
L12501 14457
L12501 14412
L12478 14344
L12433 14299
L12388 14277
L12298 14254
L12231 14254
L12141 14277
L12096 14299
L12051 14344
L12028 14412
L12028 14457
L12051 14524
L12073 14547
" />
<path d="M12456 15019
L12478 14997
L12501 14929
L12501 14884
L12478 14817
L12433 14772
L12388 14749
L12298 14727
L12231 14727
L12141 14749
L12096 14772
L12051 14817
L12028 14884
L12028 14929
L12051 14997
L12073 15019
" />
<path d="M12501 15244
L12501 15334
L12478 15379
L12456 15402
L12388 15447
L12298 15469
L12118 15469
L12073 15447
L12051 15424
L12028 15379
L12028 15289
L12051 15244
L12073 15222
L12118 15199
L12231 15199
L12276 15222
L12298 15244
L12321 15289
L12321 15379
L12298 15424
L12276 15447
L12231 15469
" />
<path d="M12028 15964
L12501 16122
L12028 16279
" />
<path d="M12456 16706
L12478 16684
L12501 16616
L12501 16571
L12478 16504
L12433 16459
L12388 16437
L12298 16414
L12231 16414
L12141 16437
L12096 16459
L12051 16504
L12028 16571
L12028 16616
L12051 16684
L12073 16706
" />
<path d="M12456 17179
L12478 17156
L12501 17089
L12501 17044
L12478 16976
L12433 16931
L12388 16909
L12298 16886
L12231 16886
L12141 16909
L12096 16931
L12051 16976
L12028 17044
L12028 17089
L12051 17156
L12073 17179
" />
<path d="M12028 17606
L12028 17381
L12253 17359
L12231 17381
L12208 17426
L12208 17539
L12231 17584
L12253 17606
L12298 17629
L12411 17629
L12456 17606
L12478 17584
L12501 17539
L12501 17426
L12478 17381
L12456 17359
" />
<path d="M12051 18439
L12028 18394
L12028 18326
L12051 18259
L12096 18214
L12141 18191
L12231 18169
L12298 18169
L12388 18191
L12433 18214
L12478 18259
L12501 18326
L12501 18371
L12478 18439
L12456 18461
L12298 18461
L12298 18371
" />
<path d="M12501 18664
L12028 18664
L12501 18934
L12028 18934
" />
<path d="M12501 19159
L12028 19159
L12028 19271
L12051 19339
L12096 19384
L12141 19406
L12231 19429
L12298 19429
L12388 19406
L12433 19384
L12478 19339
L12501 19271
L12501 19159
" />
<path d="M12028 19924
L12028 20194
" />
<path d="M12501 20059
L12028 20059
" />
<path d="M12501 20621
L12276 20464
" />
<path d="M12501 20351
L12028 20351
L12028 20531
L12051 20576
L12073 20598
L12118 20621
L12186 20621
L12231 20598
L12253 20576
L12276 20531
L12276 20351
" />
<path d="M12501 20823
L12028 20823
" />
<path d="M12051 21296
L12028 21251
L12028 21183
L12051 21116
L12096 21071
L12141 21048
L12231 21026
L12298 21026
L12388 21048
L12433 21071
L12478 21116
L12501 21183
L12501 21228
L12478 21296
L12456 21318
L12298 21318
L12298 21228
" />
<path d="M12253 21881
L12253 22038
" />
<path d="M12501 22106
L12501 21881
L12028 21881
L12028 22106
" />
<path d="M12456 22578
L12478 22556
L12501 22488
L12501 22443
L12478 22376
L12433 22331
L12388 22308
L12298 22286
L12231 22286
L12141 22308
L12096 22331
L12051 22376
L12028 22443
L12028 22488
L12051 22556
L12073 22578
" />
<path d="M12501 22781
L12028 22781
" />
<path d="M12253 22781
L12253 23051
" />
<path d="M12501 23051
L12028 23051
" />
<path d="M12028 23366
L12028 23456
L12051 23501
L12096 23546
L12186 23568
L12343 23568
L12433 23546
L12478 23501
L12501 23456
L12501 23366
L12478 23321
L12433 23276
L12343 23253
L12186 23253
L12096 23276
L12051 23321
L12028 23366
" />
</g>
<g style="fill:#000000; fill-opacity:0.0; 
stroke:#000000; stroke-width:78.7402; stroke-opacity:1; 
stroke-linecap:round; stroke-linejoin:round;">
<path d="M11486 43001
L50777 43001
" />
<path d="M50777 43001
L50777 13503
" />
<path d="M11486 13503
L11486 43001
" />
<path d="M50777 13503
L11486 13503
" />
</g>
<g style="fill:#000000; fill-opacity:0.0; 
stroke:#000000; stroke-width:137.795; stroke-opacity:1; 
stroke-linecap:round; stroke-linejoin:round;">
<path d="M50093 27109
L50066 27086
L49988 27043
L49935 27023
L49856 27007
L49725 26997
L49620 27010
L49489 27053
L49410 27089
L49358 27122
L49279 27184
L49253 27214
" />
<path d="M49830 27666
L49856 27637
L49883 27555
L49883 27502
L49856 27427
L49804 27381
L49751 27361
L49646 27348
L49568 27358
L49463 27397
L49410 27430
L49358 27489
L49332 27571
L49332 27624
L49358 27699
L49384 27722
" />
<path d="M49332 28070
L49332 28175
L49358 28224
L49410 28270
L49515 28283
L49699 28260
L49804 28221
L49856 28162
L49883 28106
L49883 28001
L49856 27952
L49804 27906
L49699 27893
L49515 27916
L49410 27955
L49358 28014
L49332 28070
" />
<path d="M49883 28474
L49332 28542
L49883 28789
L49332 28857
" />
<path d="M49594 29087
L49594 29271
" />
<path d="M49883 29313
L49883 29051
L49332 29120
L49332 29382
" />
<path d="M49830 29871
L49856 29842
L49883 29760
L49883 29707
L49856 29632
L49804 29586
L49751 29566
L49646 29553
L49568 29563
L49463 29602
L49410 29635
L49358 29694
L49332 29776
L49332 29829
L49358 29904
L49384 29927
" />
<path d="M49332 30091
L49332 30406
" />
<path d="M49883 30180
L49332 30249
" />
<path d="M49883 30521
L49332 30590
" />
<path d="M49332 30957
L49332 31062
L49358 31111
L49410 31157
L49515 31170
L49699 31147
L49804 31108
L49856 31049
L49883 30993
L49883 30888
L49856 30839
L49804 30793
L49699 30780
L49515 30803
L49410 30842
L49358 30901
L49332 30957
" />
<path d="M49883 31361
L49332 31430
L49883 31676
L49332 31745
" />
<path d="M49856 31915
L49883 31991
L49883 32122
L49856 32178
L49830 32207
L49778 32240
L49725 32247
L49673 32227
L49646 32204
L49620 32155
L49594 32053
L49568 32004
L49541 31981
L49489 31961
L49437 31968
L49384 32000
L49358 32030
L49332 32086
L49332 32217
L49358 32292
" />
<path d="M49856 32860
L49883 32936
L49883 33067
L49856 33123
L49830 33152
L49778 33185
L49725 33191
L49673 33172
L49646 33149
L49620 33100
L49594 32998
L49568 32949
L49541 32926
L49489 32906
L49437 32913
L49384 32945
L49358 32975
L49332 33031
L49332 33162
L49358 33237
" />
<path d="M49883 33408
L49332 33477
" />
<path d="M49883 33670
L49332 33739
L49332 33871
L49358 33946
L49410 33992
L49463 34012
L49568 34025
L49646 34015
L49751 33976
L49804 33943
L49856 33884
L49883 33802
L49883 33670
" />
<path d="M49594 34258
L49594 34441
" />
<path d="M49883 34484
L49883 34222
L49332 34291
L49332 34553
" />
<path d="M50093 34642
L50066 34671
L49988 34733
L49935 34766
L49856 34802
L49725 34845
L49620 34858
L49489 34848
L49410 34832
L49358 34812
L49279 34770
L49253 34747
" />
</g>
<g style="fill:#000000; fill-opacity:0.0; 
stroke:#000000; stroke-width:59.0551; stroke-opacity:1; 
stroke-linecap:round; stroke-linejoin:round;">
<path d="M17584 20385
L17584 21173
" />
<path d="M18431 21173
L18431 20385
" />
<path d="M35043 20962
L34255 20962
" />
<path d="M34255 21809
L35043 21809
" />
<path d="M14074 40511
L14685 40511
" />
<path d="M14074 41023
L14074 40511
" />
<path d="M14635 42673
L14635 44973
" />
<path d="M14635 44973
L14735 44973
" />
<path d="M14735 44973
L14735 42673
" />
<path d="M14735 42673
L14685 42673
" />
<path d="M14685 42673
L14685 44973
" />
<path d="M14785 41623
L14785 41523
" />
<path d="M14585 41623
L14585 41523
" />
<path d="M14185 41623
L14185 42623
" />
<path d="M14185 41623
L15185 41623
" />
<path d="M15185 41623
L15185 42623
" />
<path d="M14585 42623
L14585 45023
" />
<path d="M14585 45023
L14785 45023
" />
<path d="M14785 45023
L14785 42623
" />
<path d="M15185 42623
L14185 42623
" />
<path d="M21614 40507
L22224 40507
" />
<path d="M21614 41019
L21614 40507
" />
<path d="M22174 42669
L22174 44969
" />
<path d="M22174 44969
L22274 44969
" />
<path d="M22274 44969
L22274 42669
" />
<path d="M22274 42669
L22224 42669
" />
<path d="M22224 42669
L22224 44969
" />
<path d="M29124 41619
L29124 41469
" />
<path d="M29324 41619
L29324 41469
" />
<path d="M22124 41619
L22124 41469
" />
<path d="M22324 41619
L22324 41469
" />
<path d="M23124 41619
L23124 41469
" />
<path d="M23324 41619
L23324 41469
" />
<path d="M24124 41619
L24124 41469
" />
<path d="M24324 41619
L24324 41469
" />
<path d="M28324 41619
L28324 41469
" />
<path d="M28124 41619
L28124 41469
" />
<path d="M27324 41619
L27324 41469
" />
<path d="M27124 41619
L27124 41469
" />
<path d="M26324 41619
L26324 41469
" />
<path d="M26124 41619
L26124 41469
" />
<path d="M25324 41619
L25324 41469
" />
<path d="M25124 41619
L25124 41469
" />
<path d="M27724 41619
L27724 42619
" />
<path d="M27724 41619
L28724 41619
" />
<path d="M28724 41619
L28724 42619
" />
<path d="M28124 42619
L28124 45019
" />
<path d="M28124 45019
L28324 45019
" />
<path d="M28324 45019
L28324 42619
" />
<path d="M28724 42619
L27724 42619
" />
<path d="M29724 42619
L28724 42619
" />
<path d="M29324 45019
L29324 42619
" />
<path d="M29124 45019
L29324 45019
" />
<path d="M29124 42619
L29124 45019
" />
<path d="M28724 41619
L29724 41619
" />
<path d="M28724 41619
L28724 42619
" />
<path d="M29724 41619
L29724 42619
" />
<path d="M21724 41619
L21724 42619
" />
<path d="M22724 41619
L22724 42619
" />
<path d="M22724 41619
L23724 41619
" />
<path d="M23724 41619
L23724 42619
" />
<path d="M23124 42619
L23124 45019
" />
<path d="M23124 45019
L23324 45019
" />
<path d="M23324 45019
L23324 42619
" />
<path d="M23724 42619
L22724 42619
" />
<path d="M22724 42619
L21724 42619
" />
<path d="M22324 45019
L22324 42619
" />
<path d="M22124 45019
L22324 45019
" />
<path d="M22124 42619
L22124 45019
" />
<path d="M22724 41619
L22724 42619
" />
<path d="M21724 41619
L22724 41619
" />
<path d="M25724 41619
L25724 42619
" />
<path d="M25724 41619
L26724 41619
" />
<path d="M26724 41619
L26724 42619
" />
<path d="M26124 42619
L26124 45019
" />
<path d="M26124 45019
L26324 45019
" />
<path d="M26324 45019
L26324 42619
" />
<path d="M26724 42619
L25724 42619
" />
<path d="M27724 42619
L26724 42619
" />
<path d="M27324 45019
L27324 42619
" />
<path d="M27124 45019
L27324 45019
" />
<path d="M27124 42619
L27124 45019
" />
<path d="M27724 41619
L27724 42619
" />
<path d="M26724 41619
L27724 41619
" />
<path d="M26724 41619
L26724 42619
" />
<path d="M24724 41619
L24724 42619
" />
<path d="M24724 41619
L25724 41619
" />
<path d="M25724 41619
L25724 42619
" />
<path d="M25124 42619
L25124 45019
" />
<path d="M25124 45019
L25324 45019
" />
<path d="M25324 45019
L25324 42619
" />
<path d="M25724 42619
L24724 42619
" />
<path d="M24724 42619
L23724 42619
" />
<path d="M24324 45019
L24324 42619
" />
<path d="M24124 45019
L24324 45019
" />
<path d="M24124 42619
L24124 45019
" />
<path d="M24724 41619
L24724 42619
" />
<path d="M23724 41619
L24724 41619
" />
<path d="M23724 41619
L23724 42619
" />
<path d="M39570 40507
L40181 40507
" />
<path d="M39570 41019
L39570 40507
" />
<path d="M40131 42669
L40131 44969
" />
<path d="M40131 44969
L40231 44969
" />
<path d="M40231 44969
L40231 42669
" />
<path d="M40231 42669
L40181 42669
" />
<path d="M40181 42669
L40181 44969
" />
<path d="M47081 41619
L47081 41469
" />
<path d="M47281 41619
L47281 41469
" />
<path d="M40081 41619
L40081 41469
" />
<path d="M40281 41619
L40281 41469
" />
<path d="M41081 41619
L41081 41469
" />
<path d="M41281 41619
L41281 41469
" />
<path d="M42081 41619
L42081 41469
" />
<path d="M42281 41619
L42281 41469
" />
<path d="M46281 41619
L46281 41469
" />
<path d="M46081 41619
L46081 41469
" />
<path d="M45281 41619
L45281 41469
" />
<path d="M45081 41619
L45081 41469
" />
<path d="M44281 41619
L44281 41469
" />
<path d="M44081 41619
L44081 41469
" />
<path d="M43281 41619
L43281 41469
" />
<path d="M43081 41619
L43081 41469
" />
<path d="M45681 41619
L45681 42619
" />
<path d="M45681 41619
L46681 41619
" />
<path d="M46681 41619
L46681 42619
" />
<path d="M46081 42619
L46081 45019
" />
<path d="M46081 45019
L46281 45019
" />
<path d="M46281 45019
L46281 42619
" />
<path d="M46681 42619
L45681 42619
" />
<path d="M47681 42619
L46681 42619
" />
<path d="M47281 45019
L47281 42619
" />
<path d="M47081 45019
L47281 45019
" />
<path d="M47081 42619
L47081 45019
" />
<path d="M46681 41619
L47681 41619
" />
<path d="M46681 41619
L46681 42619
" />
<path d="M47681 41619
L47681 42619
" />
<path d="M39681 41619
L39681 42619
" />
<path d="M40681 41619
L40681 42619
" />
<path d="M40681 41619
L41681 41619
" />
<path d="M41681 41619
L41681 42619
" />
<path d="M41081 42619
L41081 45019
" />
<path d="M41081 45019
L41281 45019
" />
<path d="M41281 45019
L41281 42619
" />
<path d="M41681 42619
L40681 42619
" />
<path d="M40681 42619
L39681 42619
" />
<path d="M40281 45019
L40281 42619
" />
<path d="M40081 45019
L40281 45019
" />
<path d="M40081 42619
L40081 45019
" />
<path d="M40681 41619
L40681 42619
" />
<path d="M39681 41619
L40681 41619
" />
<path d="M43681 41619
L43681 42619
" />
<path d="M43681 41619
L44681 41619
" />
<path d="M44681 41619
L44681 42619
" />
<path d="M44081 42619
L44081 45019
" />
<path d="M44081 45019
L44281 45019
" />
<path d="M44281 45019
L44281 42619
" />
<path d="M44681 42619
L43681 42619
" />
<path d="M45681 42619
L44681 42619
" />
<path d="M45281 45019
L45281 42619
" />
<path d="M45081 45019
L45281 45019
" />
<path d="M45081 42619
L45081 45019
" />
<path d="M45681 41619
L45681 42619
" />
<path d="M44681 41619
L45681 41619
" />
<path d="M44681 41619
L44681 42619
" />
<path d="M42681 41619
L42681 42619
" />
<path d="M42681 41619
L43681 41619
" />
<path d="M43681 41619
L43681 42619
" />
<path d="M43081 42619
L43081 45019
" />
<path d="M43081 45019
L43281 45019
" />
<path d="M43281 45019
L43281 42619
" />
<path d="M43681 42619
L42681 42619
" />
<path d="M42681 42619
L41681 42619
" />
<path d="M42281 45019
L42281 42619
" />
<path d="M42081 45019
L42281 45019
" />
<path d="M42081 42619
L42081 45019
" />
<path d="M42681 41619
L42681 42619
" />
<path d="M41681 41619
L42681 41619
" />
<path d="M41681 41619
L41681 42619
" />
<path d="M26192 20080
L25405 20080
" />
<path d="M25405 20927
L26192 20927
" />
<polyline fill="none;"
points="14274,40613
15095,40613
15095,41434
14274,41434
14274,40613
" /> 
<polyline fill="none;"
points="21913,40649
22534,40649
22534,41390
21913,41390
21913,40649
" /> 
<path d="M22913 40959
L22913 41079
" />
<path d="M23534 40959
L23534 41079
" />
<path d="M22913.9 41079.7 A310.472 310.472 0.0 0 0 23534.9 41079.7 " />
<path d="M23534.9 40959.7 A310.472 310.472 0.0 0 0 22913.9 40959.7 " />
<path d="M23913 40959
L23913 41079
" />
<path d="M24534 40959
L24534 41079
" />
<path d="M23913.9 41079.7 A310.472 310.472 0.0 0 0 24534.9 41079.7 " />
<path d="M24534.9 40959.7 A310.472 310.472 0.0 0 0 23913.9 40959.7 " />
<path d="M24913 40959
L24913 41079
" />
<path d="M25534 40959
L25534 41079
" />
<path d="M24913.9 41079.7 A310.472 310.472 0.0 0 0 25534.9 41079.7 " />
<path d="M25534.9 40959.7 A310.472 310.472 0.0 0 0 24913.9 40959.7 " />
<path d="M25913 40959
L25913 41079
" />
<path d="M26534 40959
L26534 41079
" />
<path d="M25913.9 41079.7 A310.472 310.472 0.0 0 0 26534.9 41079.7 " />
<path d="M26534.9 40959.7 A310.472 310.472 0.0 0 0 25913.9 40959.7 " />
<path d="M26913 40959
L26913 41079
" />
<path d="M27534 40959
L27534 41079
" />
<path d="M26913.9 41079.7 A310.472 310.472 0.0 0 0 27534.9 41079.7 " />
<path d="M27534.9 40959.7 A310.472 310.472 0.0 0 0 26913.9 40959.7 " />
<path d="M27913 40959
L27913 41079
" />
<path d="M28534 40959
L28534 41079
" />
<path d="M27913.9 41079.7 A310.472 310.472 0.0 0 0 28534.9 41079.7 " />
<path d="M28534.9 40959.7 A310.472 310.472 0.0 0 0 27913.9 40959.7 " />
<path d="M28913 40959
L28913 41079
" />
<path d="M29534 40959
L29534 41079
" />
<path d="M28913.9 41079.7 A310.472 310.472 0.0 0 0 29534.9 41079.7 " />
<path d="M29534.9 40959.7 A310.472 310.472 0.0 0 0 28913.9 40959.7 " />
<polyline fill="none;"
points="39870,40649
40491,40649
40491,41390
39870,41390
39870,40649
" /> 
<path d="M40870 40959
L40870 41079
" />
<path d="M41491 40959
L41491 41079
" />
<path d="M40870.6 41079.7 A310.472 310.472 0.0 0 0 41491.6 41079.7 " />
<path d="M41491.6 40959.7 A310.472 310.472 0.0 0 0 40870.6 40959.7 " />
<path d="M41870 40959
L41870 41079
" />
<path d="M42491 40959
L42491 41079
" />
<path d="M41870.6 41079.7 A310.472 310.472 0.0 0 0 42491.6 41079.7 " />
<path d="M42491.6 40959.7 A310.472 310.472 0.0 0 0 41870.6 40959.7 " />
<path d="M42870 40959
L42870 41079
" />
<path d="M43491 40959
L43491 41079
" />
<path d="M42870.6 41079.7 A310.472 310.472 0.0 0 0 43491.6 41079.7 " />
<path d="M43491.6 40959.7 A310.472 310.472 0.0 0 0 42870.6 40959.7 " />
<path d="M43870 40959
L43870 41079
" />
<path d="M44491 40959
L44491 41079
" />
<path d="M43870.6 41079.7 A310.472 310.472 0.0 0 0 44491.6 41079.7 " />
<path d="M44491.6 40959.7 A310.472 310.472 0.0 0 0 43870.6 40959.7 " />
<path d="M44870 40959
L44870 41079
" />
<path d="M45491 40959
L45491 41079
" />
<path d="M44870.6 41079.7 A310.472 310.472 0.0 0 0 45491.6 41079.7 " />
<path d="M45491.6 40959.7 A310.472 310.472 0.0 0 0 44870.6 40959.7 " />
<path d="M45870 40959
L45870 41079
" />
<path d="M46491 40959
L46491 41079
" />
<path d="M45870.6 41079.7 A310.472 310.472 0.0 0 0 46491.6 41079.7 " />
<path d="M46491.6 40959.7 A310.472 310.472 0.0 0 0 45870.6 40959.7 " />
<path d="M46870 40959
L46870 41079
" />
<path d="M47491 40959
L47491 41079
" />
<path d="M46870.6 41079.7 A310.472 310.472 0.0 0 0 47491.6 41079.7 " />
<path d="M47491.6 40959.7 A310.472 310.472 0.0 0 0 46870.6 40959.7 " />
<path d="M19091 19926
L18904 19795
" />
<path d="M19091 19701
L18697 19701
L18697 19851
L18716 19889
L18735 19907
L18772 19926
L18829 19926
L18866 19907
L18885 19889
L18904 19851
L18904 19701
" />
<path d="M19128 20001
L19128 20301
" />
<path d="M18697 20338
L18697 20563
" />
<path d="M19091 20451
L18697 20451
" />
<path d="M19091 20920
L18904 20788
" />
<path d="M19091 20695
L18697 20695
L18697 20845
L18716 20882
L18735 20901
L18772 20920
L18829 20920
L18866 20901
L18885 20882
L18904 20845
L18904 20695
" />
<path d="M19091 21088
L18697 21088
" />
<path d="M18716 21482
L18697 21445
L18697 21388
L18716 21332
L18754 21295
L18791 21276
L18866 21257
L18922 21257
L18997 21276
L19035 21295
L19072 21332
L19091 21388
L19091 21426
L19072 21482
L19053 21501
L18922 21501
L18922 21426
" />
<path d="M19091 21876
L19091 21651
" />
<path d="M19091 21763
L18697 21763
L18754 21726
L18791 21688
L18810 21651
" />
<path d="M17017 20470
L17280 20470
" />
<path d="M16868 20376
L17149 20282
L17149 20526
" />
<path d="M17280 20676
L16886 20676
" />
<path d="M17280 20901
L17055 20732
" />
<path d="M16886 20901
L17111 20676
" />
<path d="M16886 21032
L16886 21295
L17280 21126
" />
<path d="M35062 22469
L35193 22281
" />
<path d="M35287 22469
L35287 22075
L35137 22075
L35099 22094
L35080 22113
L35062 22150
L35062 22206
L35080 22244
L35099 22263
L35137 22281
L35287 22281
" />
<path d="M34705 22469
L34893 22469
L34893 22075
" />
<path d="M34368 22469
L34593 22469
" />
<path d="M34480 22469
L34480 22075
L34518 22131
L34555 22169
L34593 22188
" />
<path d="M34237 22075
L33974 22075
L34143 22469
" />
<path d="M34958 20395
L34958 20658
" />
<path d="M35052 20245
L35146 20527
L34902 20527
" />
<path d="M34752 20658
L34752 20264
" />
<path d="M34527 20658
L34696 20433
" />
<path d="M34527 20264
L34752 20489
" />
<path d="M34396 20264
L34134 20264
L34302 20658
" />
<path d="M14707 37697
L14726 37679
L14745 37622
L14745 37585
L14726 37529
L14688 37491
L14651 37472
L14576 37454
L14520 37454
L14445 37472
L14407 37491
L14370 37529
L14351 37585
L14351 37622
L14370 37679
L14388 37697
" />
<path d="M14745 37922
L14726 37885
L14707 37866
L14670 37847
L14557 37847
L14520 37866
L14501 37885
L14482 37922
L14482 37979
L14501 38016
L14520 38035
L14557 38053
L14670 38053
L14707 38035
L14726 38016
L14745 37979
L14745 37922
" />
<path d="M14482 38222
L14745 38222
" />
<path d="M14520 38222
L14501 38241
L14482 38278
L14482 38335
L14501 38372
L14538 38391
L14745 38391
" />
<path d="M14782 38485
L14782 38785
" />
<path d="M14707 39103
L14726 39085
L14745 39028
L14745 38991
L14726 38935
L14688 38897
L14651 38878
L14576 38860
L14520 38860
L14445 38878
L14407 38897
L14370 38935
L14351 38991
L14351 39028
L14370 39085
L14388 39103
" />
<path d="M14351 39347
L14351 39422
L14370 39460
L14407 39497
L14482 39516
L14613 39516
L14688 39497
L14726 39460
L14745 39422
L14745 39347
L14726 39310
L14688 39272
L14613 39253
L14482 39253
L14407 39272
L14370 39310
L14351 39347
" />
<path d="M14745 39685
L14351 39685
L14632 39816
L14351 39947
L14745 39947
" />
<path d="M14745 40341
L14745 40116
" />
<path d="M14745 40228
L14351 40228
L14407 40191
L14445 40153
L14463 40116
" />
<path d="M21361 42561
L21380 42580
L21436 42599
L21474 42599
L21530 42580
L21567 42543
L21586 42505
L21605 42430
L21605 42374
L21586 42299
L21567 42261
L21530 42224
L21474 42205
L21436 42205
L21380 42224
L21361 42243
" />
<path d="M21136 42599
L21174 42580
L21192 42561
L21211 42524
L21211 42411
L21192 42374
L21174 42355
L21136 42336
L21080 42336
L21042 42355
L21024 42374
L21005 42411
L21005 42524
L21024 42561
L21042 42580
L21080 42599
L21136 42599
" />
<path d="M20836 42336
L20836 42599
" />
<path d="M20836 42374
L20817 42355
L20780 42336
L20724 42336
L20686 42355
L20667 42393
L20667 42599
" />
<path d="M20574 42636
L20274 42636
" />
<path d="M20199 42580
L20143 42599
L20049 42599
L20011 42580
L19993 42561
L19974 42524
L19974 42486
L19993 42449
L20011 42430
L20049 42411
L20124 42393
L20161 42374
L20180 42355
L20199 42318
L20199 42280
L20180 42243
L20161 42224
L20124 42205
L20030 42205
L19974 42224
" />
<path d="M19599 42599
L19824 42599
" />
<path d="M19711 42599
L19711 42205
L19749 42261
L19786 42299
L19824 42318
" />
<path d="M39318 42317
L39337 42336
L39393 42355
L39430 42355
L39487 42336
L39524 42299
L39543 42261
L39562 42186
L39562 42130
L39543 42055
L39524 42017
L39487 41980
L39430 41961
L39393 41961
L39337 41980
L39318 41999
" />
<path d="M39093 42355
L39130 42336
L39149 42317
L39168 42280
L39168 42167
L39149 42130
L39130 42111
L39093 42092
L39037 42092
L38999 42111
L38980 42130
L38962 42167
L38962 42280
L38980 42317
L38999 42336
L39037 42355
L39093 42355
" />
<path d="M38793 42092
L38793 42355
" />
<path d="M38793 42130
L38774 42111
L38737 42092
L38680 42092
L38643 42111
L38624 42149
L38624 42355
" />
<path d="M38530 42392
L38230 42392
" />
<path d="M38155 42336
L38099 42355
L38005 42355
L37968 42336
L37949 42317
L37931 42280
L37931 42242
L37949 42205
L37968 42186
L38005 42167
L38080 42149
L38118 42130
L38137 42111
L38155 42074
L38155 42036
L38137 41999
L38118 41980
L38080 41961
L37987 41961
L37931 41980
" />
<path d="M37781 41999
L37762 41980
L37724 41961
L37631 41961
L37593 41980
L37574 41999
L37556 42036
L37556 42074
L37574 42130
L37799 42355
L37556 42355
" />
<path d="M26642 21587
L26774 21400
" />
<path d="M26867 21587
L26867 21193
L26717 21193
L26680 21212
L26661 21231
L26642 21268
L26642 21325
L26661 21362
L26680 21381
L26717 21400
L26867 21400
" />
<path d="M26567 21625
L26267 21625
" />
<path d="M25949 21550
L25967 21568
L26024 21587
L26061 21587
L26117 21568
L26155 21531
L26174 21493
L26192 21418
L26192 21362
L26174 21287
L26155 21250
L26117 21212
L26061 21193
L26024 21193
L25967 21212
L25949 21231
" />
<path d="M25705 21193
L25630 21193
L25592 21212
L25555 21250
L25536 21325
L25536 21456
L25555 21531
L25592 21568
L25630 21587
L25705 21587
L25742 21568
L25780 21531
L25799 21456
L25799 21325
L25780 21250
L25742 21212
L25705 21193
" />
<path d="M25368 21587
L25368 21193
L25236 21475
L25105 21193
L25105 21587
" />
<path d="M24711 21587
L24936 21587
" />
<path d="M24824 21587
L24824 21193
L24861 21250
L24899 21287
L24936 21306
" />
<path d="M26108 19514
L26108 19776
" />
<path d="M26202 19364
L26296 19645
L26052 19645
" />
<path d="M25902 19776
L25902 19382
" />
<path d="M25677 19776
L25846 19551
" />
<path d="M25677 19382
L25902 19607
" />
<path d="M25546 19382
L25283 19382
L25452 19776
" />
</g> 
</svg>
